<svg xmlns="http://www.w3.org/2000/svg" viewBox="0 0 600 350">
<defs><linearGradient id="bg" x1="0%" y1="0%" x2="100%" y2="100%">
<stop offset="0%" style="stop-color:#1a1a2e"/>
<stop offset="100%" style="stop-color:#16213e"/></linearGradient></defs>
<rect width="600" height="350" fill="url(#bg)" rx="10"/>
<text x="20" y="35" font-family="Arial,sans-serif" font-size="18" font-weight="bold" fill="#e0e0e0">Top Languages</text>
<text x="20" y="55" font-family="Arial,sans-serif" font-size="11" fill="#888">by bytes (GitHub Linguist)</text>
<text x="20" y="97" font-family="Arial,sans-serif" font-size="12" fill="#e0e0e0">Dart</text>
<rect x="120" y="80" width="380.0" height="24" fill="#FF6B6B" rx="4"/>
<text x="508.0" y="97" font-family="Arial,sans-serif" font-size="11" fill="#888">4.0M (62.7%)</text>
<text x="20" y="127" font-family="Arial,sans-serif" font-size="12" fill="#e0e0e0">TypeScript</text>
<rect x="120" y="110" width="90.56822073593007" height="24" fill="#4ECDC4" rx="4"/>
<text x="218.56822073593008" y="127" font-family="Arial,sans-serif" font-size="11" fill="#888">962.5K (14.9%)</text>
<text x="20" y="157" font-family="Arial,sans-serif" font-size="12" fill="#e0e0e0">Python</text>
<rect x="120" y="140" width="67.3442247198468" height="24" fill="#45B7D1" rx="4"/>
<text x="195.3442247198468" y="157" font-family="Arial,sans-serif" font-size="11" fill="#888">715.7K (11.1%)</text>
<text x="20" y="187" font-family="Arial,sans-serif" font-size="12" fill="#e0e0e0">Svelte</text>
<rect x="120" y="170" width="28.35162473128744" height="24" fill="#96CEB4" rx="4"/>
<text x="156.35162473128744" y="187" font-family="Arial,sans-serif" font-size="11" fill="#888">301.3K (4.7%)</text>
<text x="20" y="217" font-family="Arial,sans-serif" font-size="12" fill="#e0e0e0">Shell</text>
<rect x="120" y="200" width="10.420215554461018" height="24" fill="#FFEAA7" rx="4"/>
<text x="138.420215554461" y="217" font-family="Arial,sans-serif" font-size="11" fill="#888">110.7K (1.7%)</text>
<text x="20" y="247" font-family="Arial,sans-serif" font-size="12" fill="#e0e0e0">JavaScript</text>
<rect x="120" y="230" width="9.763676574703268" height="24" fill="#DDA0DD" rx="4"/>
<text x="137.76367657470325" y="247" font-family="Arial,sans-serif" font-size="11" fill="#888">103.8K (1.6%)</text>
<text x="20" y="277" font-family="Arial,sans-serif" font-size="12" fill="#e0e0e0">CSS</text>
<rect x="120" y="260" width="6.06242278499256" height="24" fill="#98D8C8" rx="4"/>
<text x="134.06242278499258" y="277" font-family="Arial,sans-serif" font-size="11" fill="#888">64.4K (1.0%)</text>
<text x="20" y="307" font-family="Arial,sans-serif" font-size="12" fill="#e0e0e0">MDX</text>
<rect x="120" y="290" width="5.706064304794395" height="24" fill="#F7DC6F" rx="4"/>
<text x="133.70606430479438" y="307" font-family="Arial,sans-serif" font-size="11" fill="#888">60.6K (0.9%)</text>
<text x="20" y="337" font-family="Arial,sans-serif" font-size="12" fill="#e0e0e0">Rust</text>
<rect x="120" y="320" width="4.812768542311905" height="24" fill="#BB8FCE" rx="4"/>
<text x="132.81276854231191" y="337" font-family="Arial,sans-serif" font-size="11" fill="#888">51.1K (0.8%)</text>
<text x="20" y="367" font-family="Arial,sans-serif" font-size="12" fill="#e0e0e0">C++</text>
<rect x="120" y="350" width="2.814545060133915" height="24" fill="#85C1E9" rx="4"/>
<text x="130.81454506013392" y="367" font-family="Arial,sans-serif" font-size="11" fill="#888">29.9K (0.5%)</text>
<text x="20" y="400" font-family="Arial,sans-serif" font-size="10" fill="#666">Total: 6,438,265 bytes</text>
</svg>