<svg xmlns="http://www.w3.org/2000/svg" viewBox="0 0 600 350">
<defs><linearGradient id="bg" x1="0%" y1="0%" x2="100%" y2="100%">
<stop offset="0%" style="stop-color:#1a1a2e"/>
<stop offset="100%" style="stop-color:#16213e"/></linearGradient></defs>
<rect width="600" height="350" fill="url(#bg)" rx="10"/>
<text x="20" y="35" font-family="Arial,sans-serif" font-size="18" font-weight="bold" fill="#e0e0e0">Top Languages</text>
<text x="20" y="55" font-family="Arial,sans-serif" font-size="11" fill="#888">by bytes (GitHub Linguist)</text>
<text x="20" y="97" font-family="Arial,sans-serif" font-size="12" fill="#e0e0e0">Python</text>
<rect x="120" y="80" width="380.0" height="24" fill="#FF6B6B" rx="4"/>
<text x="508.0" y="97" font-family="Arial,sans-serif" font-size="11" fill="#888">1.2M (42.0%)</text>
<text x="20" y="127" font-family="Arial,sans-serif" font-size="12" fill="#e0e0e0">TypeScript</text>
<rect x="120" y="110" width="301.55015363296025" height="24" fill="#4ECDC4" rx="4"/>
<text x="429.55015363296025" y="127" font-family="Arial,sans-serif" font-size="11" fill="#888">946.0K (33.3%)</text>
<text x="20" y="157" font-family="Arial,sans-serif" font-size="12" fill="#e0e0e0">Svelte</text>
<rect x="120" y="140" width="96.03891196156114" height="24" fill="#45B7D1" rx="4"/>
<text x="224.03891196156115" y="157" font-family="Arial,sans-serif" font-size="11" fill="#888">301.3K (10.6%)</text>
<text x="20" y="187" font-family="Arial,sans-serif" font-size="12" fill="#e0e0e0">Shell</text>
<rect x="120" y="170" width="37.69249417218132" height="24" fill="#96CEB4" rx="4"/>
<text x="165.6924941721813" y="187" font-family="Arial,sans-serif" font-size="11" fill="#888">118.2K (4.2%)</text>
<text x="20" y="217" font-family="Arial,sans-serif" font-size="12" fill="#e0e0e0">JavaScript</text>
<rect x="120" y="200" width="29.177512127483062" height="24" fill="#FFEAA7" rx="4"/>
<text x="157.17751212748306" y="217" font-family="Arial,sans-serif" font-size="11" fill="#888">91.5K (3.2%)</text>
<text x="20" y="247" font-family="Arial,sans-serif" font-size="12" fill="#e0e0e0">CSS</text>
<rect x="120" y="230" width="19.62784166452064" height="24" fill="#DDA0DD" rx="4"/>
<text x="147.62784166452064" y="247" font-family="Arial,sans-serif" font-size="11" fill="#888">61.6K (2.2%)</text>
<text x="20" y="277" font-family="Arial,sans-serif" font-size="12" fill="#e0e0e0">Rust</text>
<rect x="120" y="260" width="16.302877126346438" height="24" fill="#98D8C8" rx="4"/>
<text x="144.30287712634643" y="277" font-family="Arial,sans-serif" font-size="11" fill="#888">51.1K (1.8%)</text>
<text x="20" y="307" font-family="Arial,sans-serif" font-size="12" fill="#e0e0e0">TeX</text>
<rect x="120" y="290" width="13.120078649338534" height="24" fill="#F7DC6F" rx="4"/>
<text x="141.12007864933852" y="307" font-family="Arial,sans-serif" font-size="11" fill="#888">41.2K (1.4%)</text>
<text x="20" y="337" font-family="Arial,sans-serif" font-size="12" fill="#e0e0e0">HTML</text>
<rect x="120" y="320" width="6.976974768627839" height="24" fill="#BB8FCE" rx="4"/>
<text x="134.97697476862783" y="337" font-family="Arial,sans-serif" font-size="11" fill="#888">21.9K (0.8%)</text>
<text x="20" y="367" font-family="Arial,sans-serif" font-size="12" fill="#e0e0e0">Dockerfile</text>
<rect x="120" y="350" width="4.403641558323903" height="24" fill="#85C1E9" rx="4"/>
<text x="132.4036415583239" y="367" font-family="Arial,sans-serif" font-size="11" fill="#888">13.8K (0.5%)</text>
<text x="20" y="400" font-family="Arial,sans-serif" font-size="10" fill="#666">Total: 2,838,801 bytes</text>
</svg>