<svg xmlns="http://www.w3.org/2000/svg" viewBox="0 0 600 350">
<defs><linearGradient id="bg" x1="0%" y1="0%" x2="100%" y2="100%">
<stop offset="0%" style="stop-color:#1a1a2e"/>
<stop offset="100%" style="stop-color:#16213e"/></linearGradient></defs>
<rect width="600" height="350" fill="url(#bg)" rx="10"/>
<text x="20" y="35" font-family="Arial,sans-serif" font-size="18" font-weight="bold" fill="#e0e0e0">Top Languages</text>
<text x="20" y="55" font-family="Arial,sans-serif" font-size="11" fill="#888">by bytes (GitHub Linguist)</text>
<text x="20" y="97" font-family="Arial,sans-serif" font-size="12" fill="#e0e0e0">Python</text>
<rect x="120" y="80" width="380.0" height="24" fill="#FF6B6B" rx="4"/>
<text x="508.0" y="97" font-family="Arial,sans-serif" font-size="11" fill="#888">1.2M (42.2%)</text>
<text x="20" y="127" font-family="Arial,sans-serif" font-size="12" fill="#e0e0e0">TypeScript</text>
<rect x="120" y="110" width="298.7174015648578" height="24" fill="#4ECDC4" rx="4"/>
<text x="426.7174015648578" y="127" font-family="Arial,sans-serif" font-size="11" fill="#888">946.0K (33.2%)</text>
<text x="20" y="157" font-family="Arial,sans-serif" font-size="12" fill="#e0e0e0">Svelte</text>
<rect x="120" y="140" width="95.13672563136097" height="24" fill="#45B7D1" rx="4"/>
<text x="223.13672563136097" y="157" font-family="Arial,sans-serif" font-size="11" fill="#888">301.3K (10.6%)</text>
<text x="20" y="187" font-family="Arial,sans-serif" font-size="12" fill="#e0e0e0">Shell</text>
<rect x="120" y="170" width="37.338412141275946" height="24" fill="#96CEB4" rx="4"/>
<text x="165.33841214127594" y="187" font-family="Arial,sans-serif" font-size="11" fill="#888">118.2K (4.1%)</text>
<text x="20" y="217" font-family="Arial,sans-serif" font-size="12" fill="#e0e0e0">JavaScript</text>
<rect x="120" y="200" width="28.90341955341058" height="24" fill="#FFEAA7" rx="4"/>
<text x="156.90341955341057" y="217" font-family="Arial,sans-serif" font-size="11" fill="#888">91.5K (3.2%)</text>
<text x="20" y="247" font-family="Arial,sans-serif" font-size="12" fill="#e0e0e0">CSS</text>
<rect x="120" y="230" width="19.44345837571213" height="24" fill="#DDA0DD" rx="4"/>
<text x="147.44345837571214" y="247" font-family="Arial,sans-serif" font-size="11" fill="#888">61.6K (2.2%)</text>
<text x="20" y="277" font-family="Arial,sans-serif" font-size="12" fill="#e0e0e0">Rust</text>
<rect x="120" y="260" width="16.149728443318775" height="24" fill="#98D8C8" rx="4"/>
<text x="144.14972844331876" y="277" font-family="Arial,sans-serif" font-size="11" fill="#888">51.1K (1.8%)</text>
<text x="20" y="307" font-family="Arial,sans-serif" font-size="12" fill="#e0e0e0">TeX</text>
<rect x="120" y="290" width="12.996829068863052" height="24" fill="#F7DC6F" rx="4"/>
<text x="140.99682906886306" y="307" font-family="Arial,sans-serif" font-size="11" fill="#888">41.2K (1.4%)</text>
<text x="20" y="337" font-family="Arial,sans-serif" font-size="12" fill="#e0e0e0">HTML</text>
<rect x="120" y="320" width="6.911433300759827" height="24" fill="#BB8FCE" rx="4"/>
<text x="134.91143330075982" y="337" font-family="Arial,sans-serif" font-size="11" fill="#888">21.9K (0.8%)</text>
<text x="20" y="367" font-family="Arial,sans-serif" font-size="12" fill="#e0e0e0">Dockerfile</text>
<rect x="120" y="350" width="4.362273896655565" height="24" fill="#85C1E9" rx="4"/>
<text x="132.36227389665555" y="367" font-family="Arial,sans-serif" font-size="11" fill="#888">13.8K (0.5%)</text>
<text x="20" y="400" font-family="Arial,sans-serif" font-size="10" fill="#666">Total: 2,850,106 bytes</text>
</svg>