<svg xmlns="http://www.w3.org/2000/svg" viewBox="0 0 600 350">
<defs>
  <linearGradient id="bg" x1="0%" y1="0%" x2="100%" y2="100%">
    <stop offset="0%" style="stop-color:#1a1a2e"/>
    <stop offset="100%" style="stop-color:#16213e"/>
  </linearGradient>
</defs>
<rect width="600" height="350" fill="url(#bg)" rx="10"/>
<text x="20" y="35" font-family="Arial,sans-serif" font-size="18" font-weight="bold" fill="#e0e0e0">Top Languages</text>
<text x="20" y="55" font-family="Arial,sans-serif" font-size="11" fill="#888">by lines of code</text>
  <text x="20" y="97" font-family="Arial,sans-serif" font-size="12" fill="#e0e0e0">SUM</text>
  <rect x="120" y="80" width="390.0" height="24" fill="#FF6B6B" rx="4"/>
  <text x="518.0" y="97" font-family="Arial,sans-serif" font-size="11" fill="#888">352.2K</text>
  <text x="20" y="127" font-family="Arial,sans-serif" font-size="12" fill="#e0e0e0">JavaScript</text>
  <rect x="120" y="110" width="219.038911478091" height="24" fill="#4ECDC4" rx="4"/>
  <text x="347.038911478091" y="127" font-family="Arial,sans-serif" font-size="11" fill="#888">197.8K</text>
  <text x="20" y="157" font-family="Arial,sans-serif" font-size="12" fill="#e0e0e0">Markdown</text>
  <rect x="120" y="140" width="53.078731572132746" height="24" fill="#45B7D1" rx="4"/>
  <text x="181.07873157213274" y="157" font-family="Arial,sans-serif" font-size="11" fill="#888">47.9K</text>
  <text x="20" y="187" font-family="Arial,sans-serif" font-size="12" fill="#e0e0e0">TypeScript</text>
  <rect x="120" y="170" width="25.455244985575725" height="24" fill="#96CEB4" rx="4"/>
  <text x="153.45524498557572" y="187" font-family="Arial,sans-serif" font-size="11" fill="#888">23.0K</text>
  <text x="20" y="217" font-family="Arial,sans-serif" font-size="12" fill="#e0e0e0">JSON</text>
  <rect x="120" y="200" width="22.594893578356768" height="24" fill="#FFEAA7" rx="4"/>
  <text x="150.59489357835676" y="217" font-family="Arial,sans-serif" font-size="11" fill="#888">20.4K</text>
  <text x="20" y="247" font-family="Arial,sans-serif" font-size="12" fill="#e0e0e0">Python</text>
  <rect x="120" y="230" width="13.940752561161212" height="24" fill="#DDA0DD" rx="4"/>
  <text x="141.94075256116122" y="247" font-family="Arial,sans-serif" font-size="11" fill="#888">12.6K</text>
  <text x="20" y="277" font-family="Arial,sans-serif" font-size="12" fill="#e0e0e0">YAML</text>
  <rect x="120" y="260" width="10.784731844717534" height="24" fill="#98D8C8" rx="4"/>
  <text x="138.78473184471753" y="277" font-family="Arial,sans-serif" font-size="11" fill="#888">9.7K</text>
  <text x="20" y="307" font-family="Arial,sans-serif" font-size="12" fill="#e0e0e0">Svelte</text>
  <rect x="120" y="290" width="10.520069054812257" height="24" fill="#F7DC6F" rx="4"/>
  <text x="138.52006905481227" y="307" font-family="Arial,sans-serif" font-size="11" fill="#888">9.5K</text>
  <text x="20" y="337" font-family="Arial,sans-serif" font-size="12" fill="#e0e0e0">CSV</text>
  <rect x="120" y="320" width="10.338459441655498" height="24" fill="#BB8FCE" rx="4"/>
  <text x="138.3384594416555" y="337" font-family="Arial,sans-serif" font-size="11" fill="#888">9.3K</text>
  <text x="20" y="367" font-family="Arial,sans-serif" font-size="12" fill="#e0e0e0">Dart</text>
  <rect x="120" y="350" width="7.427168752697454" height="24" fill="#85C1E9" rx="4"/>
  <text x="135.42716875269747" y="367" font-family="Arial,sans-serif" font-size="11" fill="#888">6.7K</text>
  <text x="20" y="400" font-family="Arial,sans-serif" font-size="10" fill="#666">Total: 689,178 lines</text>
</svg>